<?xml version="1.0" encoding="UTF-8" standalone="no"?>
<!-- Created with Inkscape (http://www.inkscape.org/) -->

<svg
   version="1.1"
   id="svg2"
   xml:space="preserve"
   width="302.36267"
   height="177.63733"
   viewBox="0 0 302.36267 177.63733"
   sodipodi:docname="caixa-aqui-nova-seeklogo.com.ai"
   xmlns:inkscape="http://www.inkscape.org/namespaces/inkscape"
   xmlns:sodipodi="http://sodipodi.sourceforge.net/DTD/sodipodi-0.dtd"
   xmlns="http://www.w3.org/2000/svg"
   xmlns:svg="http://www.w3.org/2000/svg"><defs
     id="defs6"><linearGradient
       x1="0"
       y1="0"
       x2="1"
       y2="0"
       gradientUnits="userSpaceOnUse"
       gradientTransform="matrix(225.56116,-132.12157,-132.12157,-225.56116,-6.3194337,119.12749)"
       spreadMethod="pad"
       id="linearGradient28"><stop
         style="stop-opacity:1;stop-color:#00b9c1"
         offset="0"
         id="stop22" /><stop
         style="stop-opacity:1;stop-color:#008ad9"
         offset="0.39244"
         id="stop24" /><stop
         style="stop-opacity:1;stop-color:#00559f"
         offset="1"
         id="stop26" /></linearGradient><clipPath
       clipPathUnits="userSpaceOnUse"
       id="clipPath38"><path
         d="M 0,133.228 H 226.772 V 0 H 0 Z"
         id="path36" /></clipPath><linearGradient
       x1="0"
       y1="0"
       x2="1"
       y2="0"
       gradientUnits="userSpaceOnUse"
       gradientTransform="matrix(24.961157,32.76152,32.76152,-24.961157,107.68696,72.633285)"
       spreadMethod="pad"
       id="linearGradient64"><stop
         style="stop-opacity:1;stop-color:#eb7006"
         offset="0"
         id="stop60" /><stop
         style="stop-opacity:1;stop-color:#ffb700"
         offset="1"
         id="stop62" /></linearGradient><linearGradient
       x1="0"
       y1="0"
       x2="1"
       y2="0"
       gradientUnits="userSpaceOnUse"
       gradientTransform="matrix(24.961109,32.761456,32.761456,-24.961109,107.4081,72.848946)"
       spreadMethod="pad"
       id="linearGradient84"><stop
         style="stop-opacity:1;stop-color:#eb7006"
         offset="0"
         id="stop80" /><stop
         style="stop-opacity:1;stop-color:#ffb700"
         offset="1"
         id="stop82" /></linearGradient><clipPath
       clipPathUnits="userSpaceOnUse"
       id="clipPath94"><path
         d="M 0,133.228 H 226.772 V 0 H 0 Z"
         id="path92" /></clipPath></defs><sodipodi:namedview
     id="namedview4"
     pagecolor="#ffffff"
     bordercolor="#666666"
     borderopacity="1.0"
     inkscape:pageshadow="2"
     inkscape:pageopacity="0.0"
     inkscape:pagecheckerboard="0" /><g
     id="g8"
     inkscape:groupmode="layer"
     inkscape:label="caixa-aqui-nova-seeklogo.com"
     transform="matrix(1.3333333,0,0,-1.3333333,0,177.63733)"><g
       id="g10"><g
         id="g12"><g
           id="g18"><g
             id="g20"><path
               d="M 0,133.228 V 0 h 226.771 v 73.121 c -23.472,23.474 -36.633,36.635 -60.106,60.107 v 0 z"
               style="fill:url(#linearGradient28);stroke:none"
               id="path30" /></g></g></g></g><g
       id="g32"><g
         id="g34"
         clip-path="url(#clipPath38)"><g
           id="g40"
           transform="translate(135.0586,74.7179)"><path
             d="M 0,0 14.435,29.689 H 25.34 L 31.422,0 H 21.847 L 21.144,3.957 H 11.849 L 9.711,0 Z M 18.653,20.146 15.121,11.35 h 4.864 z M -45.531,0 l 4.18,29.689 H -31.7 L -35.88,0 Z m -35.956,0 14.429,29.689 H -56.15 L -50.065,0 h -9.578 l -0.706,3.957 h -9.29 L -71.778,0 Z m 18.634,20.107 -3.516,-8.757 h 4.867 l -1.336,8.796 z"
             style="fill:#ffffff;fill-opacity:1;fill-rule:evenodd;stroke:none"
             id="path42" /></g><g
           id="g44"
           transform="translate(113.7256,88.5993)"><path
             d="m 0,0 h 12.094 l 8.283,-13.714 H 8.287 Z"
             style="fill:#ffffff;fill-opacity:1;fill-rule:evenodd;stroke:none"
             id="path46" /></g></g></g><g
       id="g48"><g
         id="g50"><g
           id="g56"><g
             id="g58"><path
               d="M 125.838,104.364 114.981,90.706 h 12.5 l 10.856,13.658 z"
               style="fill:url(#linearGradient64);stroke:none"
               id="path66" /></g></g></g></g><g
       id="g68"><g
         id="g70"><g
           id="g76"><g
             id="g78"><path
               d="M 113.342,88.624 102.486,74.802 h 12.495 l 10.857,13.822 z"
               style="fill:url(#linearGradient84);stroke:none"
               id="path86" /></g></g></g></g><g
       id="g88"><g
         id="g90"
         clip-path="url(#clipPath94)"><g
           id="g96"
           transform="translate(106.9922,104.529)"><path
             d="m 0,0 h 11.665 l 7.991,-13.823 H 7.989 Z"
             style="fill:#ffffff;fill-opacity:1;fill-rule:evenodd;stroke:none"
             id="path98" /></g><g
           id="g100"
           transform="translate(53.8589,103.3429)"><path
             d="m 0,0 -0.928,-8.732 c -3.558,4.904 -11.801,1.52 -12.449,-4.589 -0.821,-7.754 7.112,-9.561 11.429,-4.995 l -0.93,-8.75 c -1.289,-0.635 -2.548,-1.125 -3.792,-1.458 -1.236,-0.331 -2.476,-0.508 -3.708,-0.535 -1.546,-0.033 -2.946,0.13 -4.209,0.486 -1.263,0.348 -2.405,0.904 -3.415,1.652 -1.95,1.423 -3.36,3.235 -4.228,5.438 -0.867,2.21 -1.155,4.708 -0.858,7.492 0.238,2.243 0.803,4.287 1.702,6.138 0.893,1.852 2.128,3.537 3.703,5.061 1.488,1.455 3.108,2.553 4.863,3.3 1.744,0.736 3.651,1.131 5.71,1.174 1.231,0.026 2.44,-0.096 3.611,-0.381 C -2.321,1.021 -1.158,0.582 0,0"
             style="fill:#ffffff;fill-opacity:1;fill-rule:evenodd;stroke:none"
             id="path102" /></g><g
           id="g104"
           transform="translate(93.1358,45.2868)"><path
             d="m 0,0 c -1.136,-1.898 -3.211,-3.169 -5.587,-3.169 -3.593,0 -6.507,2.913 -6.507,6.508 0,3.596 2.914,6.508 6.507,6.508 C -3.211,9.847 -1.136,8.576 0,6.678 0.588,5.704 0.925,4.56 0.925,3.339 0.925,2.119 0.588,0.974 0,0 m 0,17.488 v -2.671 c -2.432,2.455 -5.647,3.952 -9.18,3.952 -7.582,0 -13.732,-6.909 -13.732,-15.43 0,-8.521 6.15,-15.43 13.732,-15.43 3.533,0 6.748,1.496 9.18,3.951 v -2.811 h 10.386 v 28.439 z"
             style="fill:#ffffff;fill-opacity:1;fill-rule:evenodd;stroke:none"
             id="path106" /></g><path
           d="m 184.776,62.775 h -10.388 v -28.44 h 10.388 z"
           style="fill:#ffffff;fill-opacity:1;fill-rule:evenodd;stroke:none"
           id="path108" /><g
           id="g110"
           transform="translate(128.3077,45.2868)"><path
             d="m 0,0 c -1.136,-1.898 -3.211,-3.169 -5.588,-3.169 -3.592,0 -6.507,2.913 -6.507,6.508 0,3.596 2.915,6.508 6.507,6.508 C -3.211,9.847 -1.136,8.576 0,6.678 0.588,5.704 0.924,4.56 0.924,3.339 0.924,2.119 0.588,0.974 0,0 m 0,17.488 v -2.671 c -2.433,2.455 -5.647,3.952 -9.18,3.952 -7.582,0 -13.732,-6.909 -13.732,-15.43 0,-8.521 6.15,-15.43 13.732,-15.43 3.533,0 6.747,1.496 9.18,3.951 v -16.89 h 10.385 v 42.518 z"
             style="fill:#ffffff;fill-opacity:1;fill-rule:evenodd;stroke:none"
             id="path112" /></g><g
           id="g114"
           transform="translate(171.1866,62.7751)"><path
             d="m 0,0 v -16.389 c 0,-7.637 -6.195,-13.828 -13.838,-13.828 H -16.4 c -7.643,0 -13.837,6.191 -13.837,13.828 V 0 h 10.103 v -16.067 c 0,-2.868 2.326,-5.192 5.191,-5.192 2.869,0 5.195,2.324 5.195,5.192 l 0,16.067 z"
             style="fill:#ffffff;fill-opacity:1;fill-rule:evenodd;stroke:none"
             id="path116" /></g><g
           id="g118"
           transform="translate(185.3194,73.6076)"><path
             d="m 0,0 c 0,-3.155 -2.56,-5.713 -5.717,-5.713 -3.157,0 -5.716,2.558 -5.716,5.713 0,3.155 2.559,5.712 5.716,5.712 C -2.56,5.712 0,3.155 0,0"
             style="fill:#ffffff;fill-opacity:1;fill-rule:evenodd;stroke:none"
             id="path120" /></g></g></g></g></svg>
