<svg xmlns="http://www.w3.org/2000/svg" viewBox="0 0 372.03 371.27"><g id="Camada_2" data-name="Camada 2"><g id="Camada_1-2" data-name="Camada 1"><path d="M17.75,185.81a7.67,7.67,0,0,0-1.35-.16C7,186.36,5.56,183.41,6,175.17c.18-3.61,0-7.23,0-10.85,0-7.06,1.53-8.62,8.46-8.62H89.73V53.89c-1.77,0-3.59,0-5.42,0-4-.13-6.22-2.26-6.27-6.29C78,42,78,36.36,78,30.75c0-4.7,2.14-6.78,6.91-6.79q27.93,0,55.87,0H144c0-5.41,0-10.71,0-16,0-6.2,1.75-7.93,8-7.93h67.87C226.33,0,228,1.71,228,8.25V24h58.27c5.92,0,7.72,1.84,7.73,7.86q0,7.11,0,14.22c0,6-1.82,7.82-7.75,7.85h-4V155.7h76c5.94,0,7.75,1.83,7.76,7.83q0,7.11,0,14.22c0,6-1.82,7.85-7.72,7.88h-4V341.34c3.66,0,7.36,0,11.06,0,4.48,0,6.61,2.17,6.65,6.67.05,5.49,0,11,0,16.46,0,4.67-2.17,6.72-6.93,6.79H9.23c-8,0-9.21-1.27-9.21-9.38,0-4.74,0-9.48,0-14.22.06-4.06,2.21-6.23,6.23-6.32,3.74-.08,7.48,0,11.48,0ZM102.28,54.06v287.1H144V337q0-29.93,0-59.87c0-5.75,1.87-7.62,7.59-7.62h68.61c6,0,7.79,1.82,7.79,7.8V341h41.81v-287ZM341.75,341.17V185.93H282.21V341.17ZM30.28,185.79V341H89.82V185.79ZM359.86,353.56H12.18v5.54H359.86Zm-180.1-12.4V281.74H156.2v59.42Zm12.41-.1h23.55V281.65H192.17Zm-102-299.4H281.85V36.12H90.17ZM215.85,12.23H156.31V23.76h59.54Zm-126,155.69H18.17v5.55H89.86Zm264,0H282.17v5.55h71.68Z"/><path d="M108,95.63q0-11.22,0-22.44c0-5.27,2-7.3,7.13-7.31q16.86,0,33.71,0c5.15,0,7.14,2.05,7.14,7.3q0,22.62,0,45.24c0,5.25-2,7.31-7.13,7.32q-16.85,0-33.71,0c-5.14,0-7.12-2-7.14-7.31Q108,107,108,95.63Zm12.13,17.85h23.67V78.07H120.15Z"/><path d="M210,95.81c0,7.6,0,15.2,0,22.8,0,5-2,7.11-6.94,7.13q-17.06,0-34.09,0c-4.91,0-6.94-2.11-6.94-7.13q0-22.8,0-45.61c0-5.14,2-7.11,7.31-7.12q16.68,0,33.34,0c5.4,0,7.32,2,7.33,7.49Q210,84.59,210,95.81ZM197.86,78H174.23v35.49h23.63Z"/><path d="M264,95.6q0,11.4,0,22.81c0,5.26-2,7.32-7.12,7.33q-16.86,0-33.72,0c-5.15,0-7.14-2-7.15-7.3q0-22.6,0-45.23c0-5.28,2-7.32,7.12-7.33q16.85,0,33.71,0c5.16,0,7.14,2,7.16,7.29C264,80.65,264,88.12,264,95.6Zm-35.82,17.92h23.54V78H228.19Z"/><path d="M108,227.37q0-11.22,0-22.43c0-5.27,2-7.31,7.13-7.32q16.85,0,33.71,0c5.15,0,7.14,2,7.14,7.3q0,22.62,0,45.24c0,5.25-2,7.31-7.12,7.32q-16.86,0-33.72,0c-5.14,0-7.12-2.05-7.14-7.3Q108,238.78,108,227.37Zm35.74,18V209.87H120.2v35.47Z"/><path d="M162,227.17c0-7.48,0-15,0-22.43,0-5,2-7.1,6.94-7.11q17.06,0,34.09,0c4.77,0,6.93,2.08,6.94,6.75q0,23.18,0,46.36c0,4.64-2.18,6.73-6.95,6.74q-17,0-34.09,0c-4.9,0-6.92-2.11-6.93-7.13C162,242.62,162,234.89,162,227.17Zm12.15,18.08h23.55V209.79H174.17Z"/><path d="M108,161.47c0-7.6,0-15.21,0-22.81,0-4.76,2.09-6.89,6.77-6.9q17.24-.06,34.47,0c4.52,0,6.71,2.13,6.72,6.57q.06,23.37,0,46.74c0,4.27-2.19,6.51-6.4,6.53q-17.59.08-35.21,0c-4.19,0-6.32-2.27-6.35-6.58C108,177.17,108,169.32,108,161.47Zm12.26-17.59v35.47h23.54V143.88Z"/><path d="M162,161.57c0-7.6,0-15.2,0-22.8,0-5,2.07-7,7-7q17.06,0,34.09,0c4.73,0,6.83,2.11,6.84,6.84q0,23.19,0,46.36c0,4.47-2.19,6.63-6.68,6.64q-17.41.06-34.83,0c-4.25,0-6.42-2.22-6.45-6.48C162,177.27,162,169.42,162,161.57Zm35.73,17.91V144H174.21v35.47Z"/><path d="M264,161.79c0,7.6,0,15.2,0,22.8,0,4.94-2.09,7-7.05,7q-17,0-34.09,0c-4.72,0-6.82-2.13-6.83-6.86q0-23.17,0-46.36c0-4.48,2.17-6.62,6.67-6.63q17.42-.06,34.84,0c4.25,0,6.42,2.21,6.45,6.47C264.05,146.08,264,153.93,264,161.79Zm-12.26,17.69V144H228.21v35.47Z"/><path d="M216,227.54c0-7.6,0-15.2,0-22.8,0-5,2-7.1,6.94-7.11q17.06,0,34.09,0c4.91,0,6.94,2.1,6.94,7.12q0,22.8,0,45.61c0,5.12-2.07,7.12-7.33,7.12q-16.67,0-33.34,0c-5.39,0-7.3-2-7.31-7.51Q216,238.77,216,227.54Zm35.73,17.82V209.88H228.21v35.48Z"/><path d="M288,293.41c0-7.6,0-15.2,0-22.8,0-5,2-7.1,7-7.11q17,0,34.08,0c4.77,0,6.93,2.09,6.94,6.75q0,23.17,0,46.36c0,4.65-2.18,6.73-6.95,6.74q-17.06,0-34.09,0c-4.9,0-6.92-2.11-6.93-7.13C288,308.62,288,301,288,293.41Zm12.15,17.71h23.55V275.66H300.17Z"/><path d="M336,227.81c0,7.61,0,15.21,0,22.81,0,4.73-2.12,6.84-6.83,6.86q-17.24,0-34.47,0c-4.49,0-6.66-2.17-6.67-6.64q0-23.37,0-46.73c0-4.27,2.19-6.46,6.44-6.48q17.43-.07,34.84,0c4.5,0,6.65,2.16,6.68,6.63C336,212.11,336,220,336,227.81Zm-12.16-18H300.31v35.47h23.54Z"/><path d="M84,227.75q0,11.2,0,22.43c0,5.24-2,7.29-7.15,7.3q-16.86,0-33.71,0c-5,0-7.11-2-7.12-7q0-23,0-46c0-4.91,2.09-6.92,7.13-6.93q16.86,0,33.72,0c5.14,0,7.11,2.06,7.13,7.32Q84,216.34,84,227.75ZM48.18,245.26H71.72V209.78H48.18Z"/><path d="M84,293.61q0,11.2,0,22.43c0,5.25-2,7.3-7.14,7.31q-16.86,0-33.71,0C38,323.34,36,321.3,36,316q0-22.62,0-45.24c0-5.26,2-7.3,7.13-7.31q16.86,0,33.72,0c5.14,0,7.12,2.05,7.14,7.31Q84,282.2,84,293.61ZM71.76,311.22V275.75H48.21v35.47Z"/></g></g></svg>