<svg xmlns="http://www.w3.org/2000/svg" viewBox="0 0 371.37 341.14"><g id="Camada_2" data-name="Camada 2"><g id="Camada_1-2" data-name="Camada 1"><path d="M35.68,132.83l-23,13.79c-1.07.64-2.1,1.34-3.2,1.91-4.82,2.5-9.33,0-9.38-5.4-.09-9.73,0-19.47,0-29.2,0-3.2,1.79-4.91,4.3-6.41Q45,83.15,85.72,58.7,133.3,30.14,180.86,1.53c3.44-2.08,6.3-2,9.68,0q37.41,22.6,75,45c1.13.68,2.31,1.28,4,2.22,0-8.11,0-15.66,0-23.22,0-6,1.8-7.81,7.75-7.81q16.47,0,32.94,0c5.2,0,7.19,2,7.2,7.25,0,16.34.07,32.68-.06,49a5.59,5.59,0,0,0,3.12,5.62C335.8,88.7,351,98,366.35,107c3.47,2,5.15,4.52,5,8.71-.27,8.73-.13,17.46-.05,26.2,0,2.77-.37,5.23-3,6.76s-5.24.64-7.69-.85c-8.19-5-16.39-9.88-25-15.08V305.2h15.11c4.74,0,9.48-.05,14.22,0,4,.07,6.26,2.23,6.29,6.25q.12,11.79,0,23.58c0,3.78-2.3,5.9-6.11,6.07-.87,0-1.75,0-2.62,0H8.85c-7.43,0-8.83-1.42-8.83-9,0-6.61,0-13.22,0-19.83,0-5,2-7.07,7-7.09,9.47,0,18.94,0,28.68,0Zm126,172.1H323.39v-4.35q0-85.32.09-170.66c0-3.49-1.19-5.25-4.08-7q-64.81-38.7-129.47-77.69c-3.09-1.87-5.18-2-8.31-.11Q116.51,84.42,51.21,123.39a5.91,5.91,0,0,0-3.37,5.86Q48,215.14,47.92,301v3.88h6c0-3.65,0-7,0-10.37,0-5.26,2-7.25,7.15-7.3h4.82V187.89c0-6.82,1.59-8.44,8.26-8.44h67.36c6.51,0,8.21,1.68,8.21,8.12v99.67h4.51c5.49,0,7.44,1.94,7.46,7.36C161.71,298,161.7,301.31,161.7,304.93ZM137.59,191.68H78.16V287h59.43Zm221.73-59.05c0-4.37-.16-8.19.06-12,.15-2.71-.85-4.16-3.19-5.56Q272.51,65,189,14.72c-2.54-1.53-4.28-1.35-6.71.12Q137.15,42.07,92,69.1,53.37,92.26,14.78,115.45c-1.07.64-2.59,1.73-2.65,2.68-.27,4.66-.12,9.33-.12,14.54,1.74-1,2.93-1.58,4.07-2.26Q98,81.3,179.74,32.09c4.36-2.63,7.69-2.51,12,.07q81.74,49.26,163.63,98.27C356.46,131.11,357.64,131.7,359.32,132.63ZM12.15,328.89h347V317.37h-347Zm269.32-299c0,8.4,0,16.47,0,24.55a3,3,0,0,0,.9,2.21c7.46,4.59,15,9.07,22.81,13.76V29.89ZM66.05,305h83.52V299.4H66.05Z"/><path d="M305.42,239.34c2.24,0,4.09-.06,5.93,0,3.62.14,5.93,2.24,6,5.77q.18,9.16,0,18.33c-.07,3.65-2.46,5.76-6.35,5.8-6.86.06-13.72,0-20.58,0H170c-6.53,0-8.24-1.68-8.24-8.08q0-7.11,0-14.21c0-5.76,1.85-7.62,7.55-7.65h4.42V235q0-23.94,0-47.88c0-5.78,1.85-7.68,7.5-7.69H297.91c5.64,0,7.5,1.92,7.5,7.69C305.42,204.35,305.42,221.55,305.42,239.34Zm-12.24-.17V191.71H185.85v47.46Zm12.08,12.38H173.83v5.55H305.26Z"/><path d="M185.52,155.49a41.92,41.92,0,1,1,42-41.88A41.73,41.73,0,0,1,185.52,155.49Zm-.07-12c16.15.17,29.91-13.31,30.13-29.52a30.27,30.27,0,0,0-29.73-30.32c-16.08-.24-29.87,13.28-30.13,29.53S169,143.31,185.45,143.49Z"/><path d="M119.8,245.31c0-2.12-.1-4.24,0-6.34a6,6,0,0,1,11.89,0c.15,4.22.15,8.46,0,12.68a5.72,5.72,0,0,1-6.14,5.62,5.83,5.83,0,0,1-5.77-5.63c0-.25,0-.5,0-.75C119.79,249,119.79,247.17,119.8,245.31Z"/></g></g></svg>