<svg xmlns="http://www.w3.org/2000/svg" viewBox="0 0 347.57 299.49"><g id="Camada_2" data-name="Camada 2"><g id="Camada_1-2" data-name="Camada 1"><path d="M50.78,109.93V63.18c-5.08-1-10.12-1.76-15-3.07C15.08,54.54,4.22,40.4.83,18.62A92.21,92.21,0,0,1,.05,6C0,2.64,1.9.16,5.13.07c16.71-.42,32.36,2.86,44.52,15.4,8.72,9,11.94,20.47,13.21,32.61.18,1.7.31,3.41.53,5.93,6.19-6.46,12.83-11.18,20.79-13,7.69-1.79,15.63-2.61,23.5-3.54,3.22-.38,5.49,1.49,6.13,4.79,3.45,17.63-8,41.87-23.8,50.63-7.65,4.24-16,6.07-24.56,7.21-.6.08-1.21.19-2,.33V109a252.44,252.44,0,0,1,81.35,8.76c4.82-13.12,13.71-21.19,27.65-21.81,15.36-.68,25.19,7.57,30.43,21,13.74-2.34,27.12-5.29,40.67-6.73s27-1.36,40.83-1.95v-7.43c-5.92-1.3-11.73-2.16-17.27-3.87-18.27-5.68-28.17-18.83-31.83-37.08a93.44,93.44,0,0,1-1.52-14.47c-.24-5.74,2.12-8.11,7.78-8,16,.35,30.77,4.25,42.49,16.22,1-5.89,1.55-11.69,3.06-17.24,5.5-20.24,18.45-32,42.19-35.64A87.73,87.73,0,0,1,341.17,0c3.42,0,6,1.74,6.16,5.22.52,15.25-2.52,29.56-12.77,41.46C326.5,56,315.57,60,303.77,62c-2.21.38-4.44.62-6.92,1V91c2.79-2.28,5.21-4.59,7.94-6.42,11.06-7.41,23.49-10,36.59-9.74,3.83.06,6,2.56,6,6.62.19,13-2.58,25.2-9.63,36.33a4.27,4.27,0,0,0,1,.64c10.38,3,8.75,4.62,8.75,12.73q.06,79.73,0,159.46c0,7.31-1.49,8.84-8.68,8.84H8.6c-6.94,0-8.6-1.68-8.6-8.58V128.45c0-6.45.74-7.87,7.17-9.35,13.2-3,26.49-5.64,39.74-8.42C48.13,110.42,49.36,110.2,50.78,109.93Zm-5,177.49c7,0,13.78-.19,20.5.08,3.15.12,4.48-.93,5.54-3.88a209.87,209.87,0,0,1,204.64-139c2.56.09,5.12.31,7.7.47V121.38C175.13,113.84,75.4,185,45.78,287.42Zm38,0c7.43,0,14.54-.13,21.64.06,2.65.07,3.85-.82,4.92-3.24A168.93,168.93,0,0,1,158,220.91C193.88,191.47,235,178,281.43,181c.94.06,1.89,0,2.81,0V157.37C189.3,150.23,109.69,210.36,83.74,287.44Zm38.47,0c8.31,0,16-.11,23.75.06,2.25,0,3.29-.88,4.32-2.63,37.82-63.71,115.83-86.52,182-53.27.91.46,1.88.82,3.15,1.37,0-8-.14-15.52.08-23,.08-2.61-.92-3.62-3.14-4.56A158,158,0,0,0,248.62,194c-41.93,5.45-76.66,24.59-103.85,57.07A154.25,154.25,0,0,0,122.21,287.42Zm40.58,0c9.13,0,17.44-.12,25.75.06a7.78,7.78,0,0,0,6.43-2.8c35.77-38.05,93.23-43.14,135.24-12.07,1.57,1.15,3.12,2.32,5.24,3.9,0-8.94-.13-17.25.08-25.54.07-2.76-.86-4.19-3.22-5.51-30.59-17.17-62.9-21.4-96.7-12.2C204.72,241.67,180.84,259.92,162.79,287.42ZM12,193.27c1.53-.51,2.58-.8,3.6-1.2,21.37-8.29,43.58-12.8,66.41-11.29,10,.66,17-2,23.26-9.21,3.42-3.93,7.88-7,12.23-10.72-1.12-.35-1.67-.59-2.25-.7A203.45,203.45,0,0,0,55.34,158a176.28,176.28,0,0,0-41,9.33,4.1,4.1,0,0,0-2.3,3C11.87,177.73,12,185.21,12,193.27Zm51.1-48.41a6.84,6.84,0,0,0,1.23.21c21.92-1.7,43.49.55,64.8,5.75a4.09,4.09,0,0,0,2.79-.28c8.63-5.16,17.2-10.41,26-15.75a230.62,230.62,0,0,0-94.77-13.44ZM328.78,287.24c-35.35-32.05-89.69-28.06-118.45,0ZM12,233c1.06-.45,1.62-.64,2.13-.91a132.55,132.55,0,0,1,46.75-14.53,9.23,9.23,0,0,0,7.63-4.82,113.07,113.07,0,0,1,7.33-9.91c2.47-3.19,5-6.3,7.72-9.62a8.92,8.92,0,0,0-1.5-.39,155.58,155.58,0,0,0-68.31,13.21A3.61,3.61,0,0,0,12,208.81C11.9,216.66,12,224.51,12,233Zm0,42.91c6.16-4,11.78-7.85,17.65-11.29,4.36-2.54,10-3.57,13.33-7s4.58-9.24,6.9-13.91c2.15-4.36,4.52-8.6,7-13.34a123.26,123.26,0,0,0-43.24,16,3.58,3.58,0,0,0-1.6,2.52C11.92,257.86,12,266.79,12,275.94Zm323.49-83.23c0-7.53.07-15.13-.09-22.72a3.38,3.38,0,0,0-2-2.47c-12.06-3.35-24.16-6.54-36.71-9.89v24.15ZM50.89,122.42a207.8,207.8,0,0,0-37.55,7.52A2.43,2.43,0,0,0,12,131.76c-.09,7.66,0,15.32,0,22.48,12.6-2.59,24.85-5.09,37.09-7.7a2.69,2.69,0,0,0,1.75-1.82C50.94,137.39,50.89,130.07,50.89,122.42Zm246.4,2.79c21.68-1.12,36.86-13,37.34-37.52C311.46,88.18,297.94,102.51,297.29,125.21ZM100.91,50c-21.82,1-37,13.53-37.16,37.58C85.82,86.81,100.5,73.78,100.91,50ZM284,87.56c-.87-23-17.73-39.63-37.5-37.25C247,73.73,261.71,86.92,284,87.56ZM50.11,50c-.72-22.66-14.25-36.81-37.36-37.36C13.33,35.71,27.49,49.37,50.11,50ZM334.91,12.8c-20.49-1.66-40.51,18.54-37.36,37.38C321.37,49,333.5,35.39,334.91,12.8Zm-38.4,125a44.87,44.87,0,0,1,0,4.67c-.33,2.86.45,4.12,3.7,4.4a102.41,102.41,0,0,1,14.26,2.62c6.95,1.62,13.83,3.51,21,5.35,0-7,.06-13.69,0-20.4,0-1.46-.28-3.94-1-4.17-2.68-.86-6.32-2.26-8.31-1.15C317,134.17,307.28,136.76,296.51,137.79ZM191,121.27c-3-8.77-10-14-18-13.51a17.35,17.35,0,0,0-16.25,13.56c5.29,2.05,10.6,4.12,15.93,6.12a3.19,3.19,0,0,0,2.09,0C180.08,125.47,185.39,123.41,191,121.27ZM36.59,275.19l-.68-.6L18.84,286.41l.44.82H32.83C34.11,283.11,35.35,279.15,36.59,275.19Z"/><path d="M137.83,100.59c0,5.31-4,8.35-7.87,6.55a91.06,91.06,0,0,1-12-6.79c-2.68-1.76-3.42-4.52-1.81-7.53s4.49-4.06,7.28-2.79A89.63,89.63,0,0,1,136,97.33C137.13,98.09,137.51,100,137.83,100.59Z"/><path d="M156.26,84.58c-1.51,1.64-2.76,4.12-4.6,4.68s-5.21-.05-6.28-1.42A64.16,64.16,0,0,1,138,75.43c-1.24-2.65-.3-5.43,2.43-7.11,2.54-1.57,5.48-1.53,7.09.79,3,4.35,5.4,9.15,8,13.78a2.78,2.78,0,0,1,.12,1.1Z"/><path d="M199,89.86c-5.62-.06-8.54-4.31-6.58-8.3a113,113,0,0,1,6.47-11.31,5.63,5.63,0,0,1,7.83-2,5.88,5.88,0,0,1,2.61,7.72A97,97,0,0,1,202.6,87.5C201.69,88.84,199.69,89.44,199,89.86Z"/><path d="M232,96.61c-.65.9-1.53,3-3.09,4.06a96.41,96.41,0,0,1-10.59,6.2,6,6,0,0,1-5.94-10.4,119.76,119.76,0,0,1,10.66-6.11C227.27,88.26,231.88,91,232,96.61Z"/><path d="M179.68,71.49c0,2.11.1,4.23,0,6.33a5.95,5.95,0,0,1-11.89-.14q-.19-6.33,0-12.67a6,6,0,0,1,5.82-5.68,6.07,6.07,0,0,1,6.07,5.82C179.78,67.26,179.68,69.38,179.68,71.49Z"/></g></g></svg>