<svg xmlns="http://www.w3.org/2000/svg" viewBox="0 0 371.66 371.45"><g id="Camada_2" data-name="Camada 2"><g id="Camada_1-2" data-name="Camada 1"><path d="M42.17,340.07l-10-3.46c-1.41-.48-2.87-.85-4.23-1.44a6.05,6.05,0,0,1,4-11.42c3.22.89,6.36,2.05,10.1,3.28a70.27,70.27,0,0,0-.11-8,3.41,3.41,0,0,0-2.27-2.13C18,312.16,3.58,297.5.5,275.65c-2-14.43,2.24-27.39,12.08-38.29a4.42,4.42,0,0,0,1.19-4.89c-4.18-14.8-.85-27.82,10.8-37.92s24.73-11.4,38.74-5.5c.68.29,1.35.61,2,.9.09,0,.23-.06.67-.17V62c0-6.29,1.72-8,7.9-8H90V38.77C90,31.44,91.42,30,98.61,30h21.31c0-7.49,0-14.68,0-21.88,0-6.3,1.72-8.08,7.87-8.08h116c6,0,7.86,1.81,7.87,7.71,0,7.23,0,14.46,0,22.25,4.46,0,8.77,0,13.08,0,18.13-.12,17-1.2,16.87,17.07,0,2.11,0,4.22,0,6.9h5.21c20.75,0,18.73-2,18.74,18.92v68.29c6.23-1.13,12.25-3.1,18.3-3.18,23.67-.32,40.91,22.78,34.19,45.5-.88,3-.18,4.63,1.67,6.83,11.64,13.89,15,29.76,9.13,46.86-5.9,17.26-18.39,27.78-36.25,31.56-2.61.56-3.2,1.5-3.13,3.87.14,4.73,0,9.46,0,14.68,7.36-1.83,14.33-3.58,21.3-5.28,4.48-1.1,8,.88,8.56,4.76.48,3.14-1.39,5.87-5,6.82-8.16,2.15-16.36,4.16-24.71,6.27V341.5h3.86q15.34,0,30.68,0c5.21,0,7.19,2,7.21,7.24s0,10.48,0,15.72c0,4.92-2.1,7-7.11,7q-43.41,0-86.81,0H8.81c-7.2,0-8.66-1.49-8.67-8.78V349.94c0-6.82,1.59-8.44,8.26-8.44q15,0,29.94,0c1.18,0,2.36-.11,3.54-.18ZM293.59,66.17H78.18A13.21,13.21,0,0,0,78,67.52q0,66.09,0,132.17a8.2,8.2,0,0,0,1.12,3.82c5.23,9.3,6.15,19,3.27,29.25a5.21,5.21,0,0,0,.86,4.14c18.23,20.82,16.91,49.26-3.18,68.51a7.46,7.46,0,0,0-2,4.74C77.89,319,78,327.87,78,336.73v4.55h59.89V337q0-35.56,0-71.13c0-6.56,1.66-8.26,8.06-8.27h79.71c6.27,0,8,1.73,8,7.92q0,35.94,0,71.88v3.87h59.89v-3.86c0-24.83,0-49.67.06-74.5a7.48,7.48,0,0,0-2.63-6.1c-19.56-18.38-20.8-47.76-2.85-67.51a4.34,4.34,0,0,0,1-4.92c-3.05-9.9-1.92-19.41,3-28.54a11.5,11.5,0,0,0,1.32-5.24c.1-19.35.06-38.69.06-58ZM42.07,305c0-5.82,0-11.17,0-16.53,0-4.44,2.25-6.93,6-6.88s5.88,2.55,5.91,7c0,5.33,0,10.66,0,16a7.68,7.68,0,0,0,1.49,0c13.68-3.43,23-11.71,26.91-25.33,3.91-13.78.22-25.86-9.93-35.89C67,238.05,67,238.13,70,231a23.82,23.82,0,1,0-44-.2c3,7.36,2.94,7.27-2.82,13.06-10.1,10.15-13.5,22.34-9.39,36S27.54,301.64,42.07,305Zm287.45-48.18a12.53,12.53,0,0,0,1.84-.18c13.93-3.67,23.26-12.26,26.81-26.32s-.62-25.81-11-35.58c-4.34-4.08-4.39-5.17-2.24-10.73a31.44,31.44,0,0,0,2.4-10.82c.05-9.69-6.48-18.49-15.46-21.82a23.88,23.88,0,0,0-29.92,32.48c2.62,5.73,2.37,6.71-2.17,11-10.72,10.14-14.48,22.42-10.64,36.72,3.56,13.26,16.07,24.21,28.42,25v-3.72c0-10,0-20,0-29.95,0-4.77,2.15-7.31,6.05-7.27s5.9,2.58,5.91,7.42c0,6,0,12,0,18Zm-150,84.5V269.9H150.05v71.43ZM192,269.77V341.2h29.5V269.77ZM12.28,359.23h347v-5.56h-347ZM102.11,53.66H269.33V42.13H102.11ZM239.52,12.24H132.19V29.76H239.52Zm78,329.08V323.89c0-17.09,0-34.19-.07-51.29,0-1.2-.73-3.17-1.58-3.47-3.25-1.11-6.68-1.69-10.16-2.5v74.69ZM65.91,314.54c-3.65.85-6.93,1.52-10.13,2.43a2.74,2.74,0,0,0-1.66,1.93C54,326.34,54,333.79,54,341.23H65.91Z"/><path d="M167.82,131.22c5.33,2.21,6,3.2,6,9,0,4.87,0,9.73,0,14.6s-2.09,6.95-6.74,7q-29.19,0-58.38,0c-4.53,0-6.67-2.14-6.72-6.6,0-5,0-10,0-15,0-5.76.65-6.73,6-8.95V85.61c0-5.92,1.84-7.72,7.86-7.72q22.08,0,44.16,0c6,0,7.85,1.81,7.86,7.72Zm-12.23.42V90.16H120.11v41.48ZM161.77,144H114.19v5.48h47.58Z"/><path d="M263.64,131.42c5.08,1.75,6,3,6,8.24s0,10.24,0,15.35c0,4.53-2.15,6.72-6.6,6.73q-29.37,0-58.76,0c-4.26,0-6.42-2.2-6.47-6.46-.07-5.11,0-10.23,0-15.35,0-5.54.77-6.65,6-8.59V85.75c0-6,1.8-7.86,7.72-7.86q22.26,0,44.54,0c5.73,0,7.61,1.87,7.62,7.58C263.65,100.7,263.64,115.92,263.64,131.42Zm-12.24.22V90.16H215.93v41.48Zm-41.49,17.94h47.51V144H209.91Z"/><path d="M167.82,221.28c5.09,1.77,6,3,6,8.24s0,10.24,0,15.35c0,4.53-2.14,6.73-6.59,6.74q-29.37,0-58.76,0c-4.27,0-6.43-2.2-6.48-6.45-.07-5.12,0-10.23,0-15.35,0-5.55.78-6.67,6-8.6V175.63c0-6,1.8-7.87,7.71-7.87h44.54c5.74,0,7.62,1.87,7.63,7.57C167.83,190.56,167.82,205.78,167.82,221.28Zm-47.74.13h35.47V179.93H120.08Zm41.61,12.51H114.1v5.52h47.59Z"/><path d="M263.64,221.09c5.33,2.2,6,3.2,6,9,0,4.86,0,9.73,0,14.6s-2.09,6.95-6.74,7q-29.19,0-58.39,0c-4.52,0-6.66-2.14-6.71-6.6-.05-5,0-10,0-15,0-5.76.65-6.73,6-8.95q0-22.74,0-45.61c0-5.91,1.84-7.71,7.86-7.71h44.16c6,0,7.85,1.81,7.86,7.72ZM216,179.89v41.49h35.47V179.89Zm-6.2,59.48h47.59v-5.43H209.8Z"/></g></g></svg>