<svg width="265" height="112" viewBox="0 0 265 112" fill="none" xmlns="http://www.w3.org/2000/svg">
<g clip-path="url(#clip0_189_2)">
<path d="M49.3901 9.30999V0.209991L128.58 43.35H118.21L118.35 68.2L98.3001 80.43L98.2501 40.32L49.3901 9.30999Z" fill="#EC700F" stroke="#EC700F" stroke-width="0.25" stroke-miterlimit="10"/>
<path d="M16.3399 46.16C-15.7201 84.61 4.51991 109.52 35.8099 111.34C61.1099 111.89 77.5599 107.46 93.6199 97.55C109.32 87.91 121.44 77.77 130.73 67.22C74.4499 110.2 -13.8601 117.76 16.3399 46.16Z" fill="#ABAEAD" stroke="#ABAEAD" stroke-width="0.25" stroke-miterlimit="10"/>
<path d="M50.6599 41.81H38.9199V55.72H50.6599V41.81Z" fill="#262937" stroke="#262937" stroke-width="0.25" stroke-miterlimit="10"/>
<path d="M72.74 41.81H61V55.72H72.74V41.81Z" fill="#262937" stroke="#262937" stroke-width="0.25" stroke-miterlimit="10"/>
<path d="M50.6599 63.88H38.9199V77.56H50.6599V63.88Z" fill="#262937" stroke="#262937" stroke-width="0.25" stroke-miterlimit="10"/>
<path d="M72.75 63.88H61.02V77.56H72.75V63.88Z" fill="#262937" stroke="#262937" stroke-width="0.25" stroke-miterlimit="10"/>
<path d="M180.829 58.3138H163.549L160.221 66.6978H146.909L165.469 18.4418H179.165L197.341 66.6978H183.965L180.829 58.3138ZM177.437 48.7138L172.317 33.3538H172.189L167.005 48.7138H177.437Z" fill="#262937"/>
<path d="M195.311 66.6978L203.503 18.4418H215.855L225.647 44.2338L236.015 18.4418H248.495L255.791 66.6978H243.247L239.727 38.9218H239.599L228.015 66.6978H223.023L211.951 38.9218H211.823L207.791 66.6978H195.311Z" fill="#262937"/>
<path d="M139.73 76.8577H143.91V100.398H139.73V76.8577Z" fill="#262937"/>
<path d="M149.89 76.8577H154.61L158.77 88.3677C159.29 89.8577 159.77 91.4477 160.28 92.9877H160.45C160.96 91.4477 161.45 89.8577 161.93 88.3677L166 76.8577H170.73V100.398H166.9V89.6277C166.9 87.4577 167.23 84.3277 167.43 82.1477H167.29L165.38 87.6177L161.45 98.1877H158.97L155.09 87.6177L153.22 82.1477H153.07C153.27 84.3277 153.6 87.4577 153.6 89.6277V100.398H149.85L149.89 76.8577Z" fill="#262937"/>
<path d="M175.45 88.5378C175.45 80.9178 179.7 76.4277 185.83 76.4277C191.96 76.4277 196.23 80.9377 196.23 88.5378C196.23 96.1378 191.98 100.838 185.85 100.838C179.72 100.838 175.45 96.1577 175.45 88.5378ZM191.92 88.5378C191.92 83.2577 189.53 80.0578 185.83 80.0578C182.13 80.0578 179.74 83.2577 179.74 88.5378C179.74 93.8178 182.13 97.2077 185.83 97.2077C189.53 97.2077 191.94 93.8178 191.94 88.5378H191.92ZM183.5 73.5378L189.13 68.6978L191.45 71.4178L185.4 75.6178L183.5 73.5378Z" fill="#262937"/>
<path d="M197.45 76.8577H201.87L205.18 88.6977C205.94 91.3677 206.46 93.6977 207.25 96.3577H207.45C208.24 93.6777 208.78 91.3577 209.52 88.6977L212.79 76.8577H217.05L209.76 100.398H204.76L197.45 76.8577Z" fill="#262937"/>
<path d="M219.69 76.8577H233.86V80.3777H223.86V86.3777H232.32V89.9377H223.86V96.9377H234.21V100.448H219.69V76.8577Z" fill="#262937"/>
<path d="M239.06 76.8577H243.23V100.398H239.06V76.8577Z" fill="#262937"/>
<path d="M247.6 97.3877L250.03 94.5177C251.666 96.1483 253.853 97.1078 256.16 97.2077C258.81 97.2077 260.27 96.0077 260.27 94.2077C260.27 92.4077 258.75 91.6477 256.61 90.7477L253.39 89.3477C251.07 88.3477 248.63 86.5477 248.63 83.1077C248.63 79.3577 251.95 76.4677 256.54 76.4677C259.26 76.4759 261.868 77.5535 263.8 79.4677L261.65 82.1177C260.255 80.8388 258.433 80.1257 256.54 80.1177C254.31 80.1177 252.85 81.1177 252.85 82.8777C252.85 84.6377 254.65 85.4177 256.6 86.2177L259.77 87.5477C262.57 88.7077 264.53 90.4877 264.53 93.8977C264.53 97.7077 261.36 100.898 256.08 100.898C252.903 100.881 249.859 99.6214 247.6 97.3877Z" fill="#262937"/>
</g>
<defs>
<clipPath id="clip0_189_2">
<rect width="265" height="112" fill="white"/>
</clipPath>
</defs>
</svg>
